# xmcd CD database file
#
# Track frame offsets:
#	150
#	19219
#	37877
#	57863
#	78274
#	100118
#	121188
#	137848
#	157909
#	178955
#	197621
#	211692
#
# Disc length: 3055 seconds
#
# Revision: 0
# Processed by: cddbd v1.5.1PL0 Copyright (c) Steve Scherf et al.
# Submitted via: CDex 1.51
#
DISCID=930bed0c
DTITLE=Shania Twain - The woman in me
DYEAR=1900
DGENRE=Country
TTITLE0=Home Ain't Where His Heart Is
TTITLE1=Any Man of mine
TTITLE2=Whose Bed Have Your Boots Been
TTITLE3=If You're Not In It For Love
TTITLE4=The Woman In Me (Needs The Man
TTITLE5=Is There Life After Love
TTITLE6=If It Don't Take Two
TTITLE7=You Win My Love
TTITLE8=Raining On Our Love
TTITLE9=Leaving Is The Only Way Out
TTITLE10=No One Needs To Know
TTITLE11=God Bless The Child
EXTD=
EXTT0=
EXTT1=
EXTT2=
EXTT3=
EXTT4=
EXTT5=
EXTT6=
EXTT7=
EXTT8=
EXTT9=
EXTT10=
EXTT11=
PLAYORDER=
